<?xml version="1.0" encoding="iso-8859-1"?>
<!-- Generator: Adobe Illustrator 19.0.0, SVG Export Plug-In . SVG Version: 6.00 Build 0)  -->
<svg version="1.1" id="Layer_1" xmlns="http://www.w3.org/2000/svg" xmlns:xlink="http://www.w3.org/1999/xlink" x="0px" y="0px"
	 viewBox="0 0 512 512" style="enable-background:new 0 0 512 512;" xml:space="preserve">
<g>
	<polygon style="fill:#4E5356;" points="512,482.741 482.745,511.996 453.491,482.741 482.745,453.487 	"/>
	<polygon style="fill:#717679;" points="504.685,431.543 431.54,504.689 365.713,453.48 453.485,365.716 	"/>
	<polygon style="fill:#9EA7A9;" points="7.315,80.457 80.46,7.311 146.287,58.52 58.515,146.284 	"/>
	<g>
		<path style="fill:#717679;" d="M63.741,141.06l77.321-77.321c15.316-15.316,39.857-16.225,56.267-2.074l109.868,84.621
			L146.288,307.195l-84.63-109.868C47.516,180.925,48.425,156.376,63.741,141.06"/>
		<polygon style="fill:#717679;" points="0,29.259 29.255,0.004 58.509,29.259 29.255,58.513 		"/>
		<path style="fill:#717679;" d="M87.772,67.344c-2.26,0-4.52-0.865-6.241-2.586c-3.452-3.452-3.452-9.031,0-12.482l24.382-24.391
			c3.434-3.443,9.031-3.443,12.482,0c3.443,3.452,3.443,9.039,0,12.482L94.013,64.758C92.292,66.479,90.032,67.344,87.772,67.344"/>
		<path style="fill:#717679;" d="M34.134,120.983c-2.26,0-4.52-0.865-6.241-2.586c-3.452-3.452-3.452-9.031,0-12.482l24.382-24.391
			c3.434-3.443,9.031-3.443,12.482,0c3.443,3.452,3.443,9.039,0,12.482l-24.382,24.391
			C38.653,120.117,36.393,120.983,34.134,120.983"/>
	</g>
	<path style="fill:#4E5356;" d="M146.285,307.198L307.203,146.28c8.077-8.077,21.177-8.077,29.255,0
		c8.077,8.086,8.077,21.186,0,29.263L175.539,336.452c-8.077,8.077-21.169,8.077-29.255,0
		C138.207,328.375,138.207,315.275,146.285,307.198"/>
	<path style="fill:#9EA7A9;" d="M148.763,158.44l9.675-9.684c21.566-21.557,56.532-21.557,78.089,0l34.101,34.101l-87.773,87.773
		l-34.092-34.092C127.198,214.963,127.198,179.997,148.763,158.44"/>
	<g>
		<path style="fill:#4E5356;" d="M399.849,486.698c-2.26,0-4.52-0.865-6.241-2.587c-3.452-3.452-3.452-9.031,0-12.482l24.382-24.391
			c3.434-3.443,9.031-3.443,12.482,0c3.443,3.452,3.443,9.039,0,12.482l-24.382,24.391
			C404.369,485.833,402.109,486.698,399.849,486.698"/>
		<path style="fill:#4E5356;" d="M453.487,433.061c-2.26,0-4.52-0.865-6.241-2.586c-3.452-3.452-3.452-9.031,0-12.482l24.382-24.391
			c3.434-3.443,9.031-3.443,12.482,0c3.443,3.452,3.443,9.039,0,12.482l-24.382,24.391
			C458.007,432.196,455.747,433.061,453.487,433.061"/>
	</g>
	<path style="fill:#9EA7A9;" d="M365.715,204.801L204.797,365.719c-8.077,8.077-21.177,8.077-29.255,0
		c-8.077-8.086-8.077-21.186,0-29.263l160.918-160.909c8.077-8.077,21.169-8.077,29.255,0
		C373.793,183.624,373.793,196.724,365.715,204.801"/>
	<path style="fill:#4E5356;" d="M448.259,370.939l-77.321,77.321c-15.316,15.316-39.857,16.225-56.267,2.074l-109.868-84.621
		l160.909-160.909l84.63,109.868C464.484,331.074,463.575,355.623,448.259,370.939"/>
	<path style="fill:#717679;" d="M364.832,351.965l-12.871,12.871c-20.683,20.683-54.219,20.683-74.902,0l-35.69-35.69l87.773-87.773
		l35.69,35.69C385.515,297.746,385.515,331.282,364.832,351.965"/>
</g>
<g>
</g>
<g>
</g>
<g>
</g>
<g>
</g>
<g>
</g>
<g>
</g>
<g>
</g>
<g>
</g>
<g>
</g>
<g>
</g>
<g>
</g>
<g>
</g>
<g>
</g>
<g>
</g>
<g>
</g>
</svg>
