<?xml version="1.0" encoding="UTF-8" standalone="no"?>
<!DOCTYPE svg PUBLIC "-//W3C//DTD SVG 1.1//EN" "http://www.w3.org/Graphics/SVG/1.1/DTD/svg11.dtd">
<svg width="100%" height="100%" viewBox="0 0 720 720" version="1.1" xmlns="http://www.w3.org/2000/svg" xmlns:xlink="http://www.w3.org/1999/xlink" xml:space="preserve" xmlns:serif="http://www.serif.com/" style="fill-rule:evenodd;clip-rule:evenodd;stroke-linejoin:round;stroke-miterlimit:2;">
    <g transform="matrix(1,0,0,1,75,0)">
        <path d="M158.38,1.656C154.761,1.769 150.863,3.106 146.442,6.594C135.612,2.417 125.112,0.967 115.722,9.469C101.222,7.588 96.51,11.469 92.94,16C89.757,15.934 69.121,12.728 59.658,26.844C35.877,24.03 28.361,40.832 36.877,56.5C32.02,64.019 26.988,71.447 38.346,85.781C34.328,93.765 36.818,102.425 46.283,112.906C43.785,124.129 48.695,132.047 57.502,138.218C55.855,153.576 71.586,162.505 76.283,165.687C78.087,174.636 81.846,183.08 99.814,187.749C102.778,201.085 113.576,203.388 124.033,206.187C89.471,226.277 59.832,252.71 60.033,317.567L54.971,326.598C15.341,350.698 -20.314,428.158 35.441,491.118C39.083,510.826 45.19,524.982 50.629,540.649C58.763,603.78 111.847,633.341 125.848,636.837C146.365,652.465 168.216,667.294 197.786,677.681C225.661,706.43 255.86,717.387 286.224,717.369C286.669,717.369 287.122,717.374 287.568,717.369C317.932,717.388 348.13,706.431 376.006,677.681C405.575,667.294 427.427,652.465 447.944,636.837C461.945,633.341 515.029,603.78 523.163,540.649C528.601,524.982 534.709,510.826 538.351,491.118C594.105,428.153 558.451,350.688 518.82,326.588L513.75,317.558C513.95,252.706 484.312,226.273 449.75,206.178C460.207,203.38 471.006,201.077 473.969,187.74C491.937,183.07 495.697,174.626 497.5,165.678C502.197,162.497 517.928,153.567 516.281,138.209C525.087,132.038 529.998,124.119 527.5,112.897C536.965,102.416 539.456,93.756 535.437,85.772C546.797,71.444 541.757,64.016 536.907,56.497C545.417,40.829 537.907,24.027 514.117,26.841C504.657,12.725 484.027,15.931 480.837,15.997C477.267,11.466 472.557,7.585 458.057,9.466C448.667,0.964 438.167,2.415 427.337,6.591C414.477,-3.557 405.967,4.578 396.247,7.653C380.677,2.566 377.117,9.534 369.467,12.372C352.487,8.784 347.327,16.596 339.187,24.841L329.718,24.654C304.107,39.747 291.384,70.48 286.874,86.279C282.362,70.477 269.668,39.744 244.062,24.654L234.594,24.841C226.444,16.596 221.284,8.784 204.304,12.372C196.654,9.534 193.104,2.566 177.524,7.653C171.144,5.635 165.277,1.439 158.368,1.653L158.38,1.656Z" style="fill-rule:nonzero;"/>
    </g>
    <g transform="matrix(1,0,0,1,75,0)">
        <path d="M107.39,68.056C175.338,103.087 214.84,131.425 236.48,155.56C225.398,199.978 167.584,202.005 146.444,200.759C150.772,198.744 154.384,196.331 155.665,192.623C150.36,188.854 131.552,192.226 118.421,184.849C123.465,183.804 125.824,182.786 128.183,179.064C115.777,175.107 102.414,171.697 94.555,165.143C98.797,165.195 102.757,166.092 108.295,162.25C97.183,156.262 85.326,151.516 76.114,142.363C81.86,142.222 88.053,142.306 89.854,140.194C79.684,133.893 71.103,126.886 64,119.222C72.04,120.192 75.435,119.356 77.379,117.956C69.692,110.082 59.961,103.433 55.322,93.73C61.292,95.787 66.753,96.575 70.69,93.549C68.078,87.656 56.885,84.18 50.441,70.407C56.726,71.016 63.391,71.778 64.724,70.407C61.807,58.523 56.802,51.842 51.893,44.92C65.343,44.72 85.721,44.972 84.798,43.835L76.482,35.338C89.62,31.801 103.063,35.906 112.822,38.954C117.204,35.496 112.744,31.124 107.398,26.66C118.563,28.15 128.652,30.717 137.771,34.253C142.644,29.854 134.607,25.454 130.72,21.055C147.969,24.328 155.277,28.926 162.54,33.53C167.809,28.479 162.842,24.187 159.286,19.79C172.292,24.607 178.991,30.826 186.044,36.965C188.435,33.738 192.119,31.373 187.671,23.586C196.905,28.909 203.86,35.181 209.005,42.208C214.718,38.57 212.409,33.595 212.44,29.01C222.037,36.817 228.127,45.124 235.582,53.236C237.084,52.143 238.399,48.434 239.56,42.569C262.455,64.781 294.806,120.727 247.876,142.909C207.936,109.969 160.236,86.026 107.376,68.065L107.39,68.056Z" style="fill:rgb(117,169,40);fill-rule:nonzero;"/>
    </g>
    <g transform="matrix(1,0,0,1,75,0)">
        <path d="M467.92,68.056C399.98,103.09 360.48,131.42 338.84,155.56C349.922,199.978 407.736,202.005 428.876,200.759C424.548,198.744 420.936,196.331 419.656,192.623C424.96,188.854 443.769,192.226 456.9,184.849C451.855,183.804 449.496,182.786 447.137,179.064C459.543,175.107 472.906,171.697 480.765,165.143C476.523,165.195 472.563,166.092 467.025,162.25C478.137,156.262 489.994,151.516 499.206,142.363C493.46,142.222 487.267,142.306 485.466,140.194C495.636,133.893 504.217,126.886 511.32,119.222C503.28,120.192 499.885,119.356 497.941,117.956C505.628,110.082 515.359,103.433 519.998,93.73C514.028,95.787 508.567,96.575 504.63,93.549C507.242,87.656 518.435,84.18 524.879,70.407C518.594,71.016 511.929,71.778 510.596,70.407C513.518,58.518 518.523,51.837 523.432,44.915C509.982,44.715 489.604,44.967 490.527,43.83L498.843,35.333C485.705,31.796 472.262,35.901 462.503,38.949C458.121,35.491 462.581,31.119 467.927,26.655C456.762,28.146 446.673,30.712 437.554,34.248C432.681,29.849 440.718,25.45 444.605,21.05C427.356,24.323 420.048,28.921 412.785,33.525C407.515,28.475 412.483,24.182 416.039,19.785C403.033,24.602 396.334,30.821 389.281,36.96C386.89,33.733 383.206,31.368 387.654,23.581C378.42,28.904 371.465,35.176 366.32,42.203C360.607,38.565 362.916,33.59 362.885,29.005C353.288,36.812 347.198,45.119 339.743,53.231C338.241,52.138 336.926,48.43 335.765,42.564C312.87,64.776 280.519,120.722 327.449,142.904C367.368,109.957 415.065,86.016 467.929,68.055L467.92,68.056Z" style="fill:rgb(117,169,40);fill-rule:nonzero;"/>
    </g>
    <g transform="matrix(1.13111,0,0,1.12805,31.8609,-68.311)">
        <path d="M365.2,521.85C365.201,521.967 365.201,522.084 365.201,522.201C365.201,558.699 332.719,588.733 293.245,588.733C253.771,588.733 221.289,558.699 221.289,522.201C221.289,522.084 221.289,521.967 221.29,521.85C221.289,521.733 221.289,521.616 221.289,521.499C221.289,485.001 253.771,454.967 293.245,454.967C332.719,454.967 365.201,485.001 365.201,521.499C365.201,521.616 365.201,521.733 365.2,521.85Z" style="fill:rgb(188,17,66);fill-rule:nonzero;"/>
    </g>
    <g transform="matrix(0.767417,-1.16131,2.17111,1.42244,-485.889,217.689)">
        <path d="M262.84,276.65C262.84,292.079 234.909,304.775 200.965,304.775C167.021,304.775 139.09,292.079 139.09,276.65C139.09,261.221 167.021,248.525 200.965,248.525C234.909,248.525 262.84,261.221 262.84,276.65Z" style="fill:rgb(188,17,66);fill-rule:nonzero;"/>
    </g>
    <g transform="matrix(-0.767417,-1.16131,-2.17111,1.42244,1209.83,213.689)">
        <path d="M262.84,276.65C262.84,292.079 234.909,304.775 200.965,304.775C167.021,304.775 139.09,292.079 139.09,276.65C139.09,261.221 167.021,248.525 200.965,248.525C234.909,248.525 262.84,261.221 262.84,276.65Z" style="fill:rgb(188,17,66);fill-rule:nonzero;"/>
    </g>
    <g transform="matrix(1,0,0,1,75,0)">
        <path d="M72.91,342.09C109.32,332.33 85.202,492.72 55.577,479.56C22.99,453.35 12.494,376.59 72.91,342.09Z" style="fill:rgb(188,17,66);fill-rule:nonzero;"/>
    </g>
    <g transform="matrix(1,0,0,1,75,0)">
        <path d="M493.68,340.09C457.266,330.333 481.388,490.73 511.013,477.57C543.6,451.357 554.096,374.59 493.68,340.09Z" style="fill:rgb(188,17,66);fill-rule:nonzero;"/>
    </g>
    <g transform="matrix(1,0,0,1,75,0)">
        <path d="M369.97,220.65C432.805,210.04 485.09,247.372 482.98,315.508C480.913,341.629 346.82,224.539 369.97,220.65Z" style="fill:rgb(188,17,66);fill-rule:nonzero;"/>
    </g>
    <g transform="matrix(1,0,0,1,75,0)">
        <path d="M196.36,218.65C133.52,208.04 81.24,245.38 83.35,313.51C85.417,339.63 219.51,222.54 196.36,218.65Z" style="fill:rgb(188,17,66);fill-rule:nonzero;"/>
    </g>
    <g transform="matrix(1,0,0,1,75,0)">
        <path d="M286.62,202.76C249.117,201.785 213.125,230.594 213.038,247.304C212.933,267.608 242.689,288.397 286.875,288.924C331.998,289.247 360.791,272.284 360.936,251.33C361.101,227.59 319.897,202.393 286.619,202.759L286.62,202.76Z" style="fill:rgb(188,17,66);fill-rule:nonzero;"/>
    </g>
    <g transform="matrix(1,0,0,1,75,0)">
        <path d="M288.91,619.12C321.607,617.693 365.481,629.652 365.567,645.516C366.11,660.921 325.777,695.727 286.741,695.054C246.314,696.798 206.672,661.938 207.191,649.855C206.586,632.139 256.417,618.307 288.91,619.12Z" style="fill:rgb(188,17,66);fill-rule:nonzero;"/>
    </g>
    <g transform="matrix(1,0,0,1,75,0)">
        <path d="M168.14,525.1C191.419,553.146 202.031,602.419 182.604,616.944C164.225,628.032 119.592,623.466 87.868,577.892C66.473,539.65 69.23,500.735 84.252,489.303C106.716,475.619 141.425,494.102 168.141,525.1L168.14,525.1Z" style="fill:rgb(188,17,66);fill-rule:nonzero;"/>
    </g>
    <g transform="matrix(1,0,0,1,75,0)">
        <path d="M405.02,516.21C379.833,545.712 365.808,599.52 384.182,616.85C401.75,630.314 448.911,628.432 483.748,580.094C509.044,547.629 500.568,493.412 486.119,479.014C464.655,462.412 433.842,483.659 405.02,516.202L405.02,516.21Z" style="fill:rgb(188,17,66);fill-rule:nonzero;"/>
    </g>
</svg>
