<?xml version="1.0" encoding="iso-8859-1"?>
<!-- Generator: Adobe Illustrator 19.0.0, SVG Export Plug-In . SVG Version: 6.00 Build 0)  -->
<svg version="1.1" id="Layer_1" xmlns="http://www.w3.org/2000/svg" xmlns:xlink="http://www.w3.org/1999/xlink" x="0px" y="0px"
	 viewBox="0 0 512 512" style="enable-background:new 0 0 512 512;" xml:space="preserve">
<g>
	<g>
		<polygon style="fill:#9EA7A9;" points="506.048,446.509 446.514,506.042 392.931,464.367 464.372,392.934 		"/>
		<path style="fill:#9EA7A9;" d="M232.185,184.561l23.817-23.817l59.533,59.533c6.577,6.577,6.577,17.24,0,23.817
			c-6.577,6.577-17.24,6.577-23.817,0L232.185,184.561z"/>
		<path style="fill:#9EA7A9;" d="M160.746,256l23.808-23.808l59.542,59.533c6.577,6.568,6.577,17.231,0,23.808
			c-6.577,6.577-17.24,6.577-23.817,0L160.746,256z"/>
	</g>
	<polygon style="fill:#717679;" points="0,23.81 23.817,0.002 47.634,23.81 23.817,47.627 	"/>
	<polygon style="fill:#9EA7A9;" points="5.952,65.491 65.486,5.958 119.069,47.633 47.627,119.066 	"/>
	<path style="fill:#4E5356;" d="M119.069,250.043l130.975-130.975c6.577-6.577,17.24-6.577,23.817,0
		c6.577,6.577,6.577,17.24,0,23.817L142.886,273.86c-6.577,6.577-17.24,6.577-23.817,0
		C112.493,267.283,112.493,256.619,119.069,250.043"/>
	<path style="fill:#717679;" d="M51.883,114.819l62.932-62.941c12.473-12.465,32.45-13.206,45.806-1.686l89.423,68.873
		L119.07,250.04l-68.882-89.423C38.668,147.26,39.41,127.284,51.883,114.819"/>
	<path style="fill:#9EA7A9;" d="M117.53,132.518l14.98-14.98c15.59-15.598,40.872-15.598,56.461,0l31.311,31.303l-71.45,71.433
		l-31.303-31.294C101.941,173.38,101.941,148.107,117.53,132.518"/>
	<g>
		<polygon style="fill:#717679;" points="512,488.19 488.183,511.998 464.366,488.19 488.183,464.373 		"/>
		<path style="fill:#717679;" d="M420.711,493.043c-2.26,0-4.52-0.865-6.241-2.586c-3.452-3.452-3.452-9.031,0-12.482l19.844-19.844
			c3.452-3.452,9.031-3.452,12.482,0c3.452,3.452,3.452,9.031,0,12.482l-19.844,19.844
			C425.231,492.178,422.971,493.043,420.711,493.043"/>
		<path style="fill:#717679;" d="M464.371,449.388c-2.26,0-4.52-0.865-6.241-2.586c-3.452-3.452-3.452-9.031,0-12.482l19.844-19.844
			c3.452-3.452,9.031-3.452,12.482,0c3.452,3.452,3.452,9.031,0,12.482l-19.844,19.844
			C468.891,448.523,466.631,449.388,464.371,449.388"/>
	</g>
	<path style="fill:#4E5356;" d="M392.931,261.956L261.956,392.931c-6.577,6.577-17.24,6.577-23.817,0
		c-6.577-6.577-6.577-17.24,0-23.817L369.114,238.14c6.577-6.577,17.24-6.577,23.817,0
		C399.507,244.716,399.507,255.38,392.931,261.956"/>
	<path style="fill:#717679;" d="M460.117,397.181l-62.932,62.941c-12.473,12.465-32.45,13.206-45.806,1.686l-89.423-68.873
		L392.93,261.96l68.882,89.423C473.332,364.74,472.59,384.716,460.117,397.181"/>
	<path style="fill:#9EA7A9;" d="M394.643,379.31l-15.325,15.325c-15.501,15.501-40.625,15.501-56.117,0l-31.479-31.47l71.442-71.442
		l31.479,31.479C410.135,338.695,410.135,363.818,394.643,379.31"/>
	<g>
		<path style="fill:#717679;" d="M71.444,56.456c-2.26,0-4.52-0.865-6.241-2.586c-3.452-3.452-3.452-9.031,0-12.482l19.844-19.844
			c3.452-3.452,9.031-3.452,12.482,0s3.452,9.031,0,12.482L77.685,53.87C75.964,55.591,73.704,56.456,71.444,56.456"/>
		<path style="fill:#717679;" d="M27.785,100.112c-2.26,0-4.52-0.865-6.241-2.586c-3.452-3.452-3.452-9.031,0-12.482l19.844-19.844
			c3.452-3.452,9.031-3.452,12.482,0c3.452,3.452,3.452,9.031,0,12.482L34.026,97.526C32.305,99.247,30.045,100.112,27.785,100.112"
			/>
	</g>
</g>
<g>
</g>
<g>
</g>
<g>
</g>
<g>
</g>
<g>
</g>
<g>
</g>
<g>
</g>
<g>
</g>
<g>
</g>
<g>
</g>
<g>
</g>
<g>
</g>
<g>
</g>
<g>
</g>
<g>
</g>
</svg>
